<?xml version="1.0" encoding="UTF-8" ?>
<!DOCTYPE svg PUBLIC "-//W3C//DTD SVG 1.1//EN" "http://www.w3.org/Graphics/SVG/1.1/DTD/svg11.dtd">
<svg width="1760pt" height="330pt" viewBox="0 0 1760 330" version="1.1" xmlns="http://www.w3.org/2000/svg">
<g id="#000000ff">
<path fill="#000000" opacity="1.00" d=" M 102.27 27.59 C 148.85 27.38 195.44 27.56 242.02 27.50 C 286.18 24.24 327.41 63.41 324.78 107.95 C 318.55 108.12 312.33 107.89 306.11 108.05 C 306.98 123.00 306.31 138.00 306.52 152.98 C 310.97 153.06 315.43 153.00 319.88 153.04 C 316.50 181.52 313.50 210.06 309.74 238.50 C 315.90 238.49 322.05 238.52 328.20 238.48 C 331.45 209.99 334.75 181.51 338.18 153.04 C 333.70 152.98 329.21 153.00 324.73 153.00 C 324.75 139.38 324.67 125.76 324.77 112.14 C 325.92 110.77 327.05 109.39 328.18 108.01 C 334.42 107.99 340.66 108.02 346.90 107.98 C 369.84 82.83 392.89 57.78 415.95 32.73 C 413.31 57.83 410.11 82.88 407.31 107.97 C 401.09 108.06 394.87 107.97 388.65 108.01 C 388.65 123.02 388.64 138.03 388.65 153.04 C 393.09 152.99 397.52 152.96 401.96 153.05 C 398.83 181.56 395.27 210.01 392.11 238.51 C 403.45 238.48 414.78 238.50 426.12 238.50 C 426.18 255.98 426.15 273.47 426.13 290.95 C 433.07 290.96 440.02 291.07 446.96 290.96 C 446.97 279.97 446.95 268.98 446.98 258.00 C 489.33 257.96 531.68 258.08 574.03 257.94 C 585.91 257.91 599.93 251.72 601.46 238.51 C 590.08 238.49 578.71 238.51 567.34 238.50 C 569.64 229.88 570.70 215.56 558.93 213.89 C 535.16 210.33 510.83 213.84 486.96 210.96 C 456.79 207.79 429.40 183.86 426.22 153.01 C 421.73 153.00 417.24 153.00 412.75 153.00 C 409.01 138.29 408.58 122.45 413.68 108.00 C 419.90 108.00 426.13 108.01 432.35 107.99 C 453.31 65.49 496.32 32.30 544.04 27.69 C 602.31 27.27 660.59 27.58 718.86 27.53 C 699.37 48.87 679.86 70.19 660.36 91.52 C 623.91 91.48 587.45 91.52 551.00 91.50 C 534.59 90.76 517.50 96.13 505.80 107.95 C 499.53 108.07 493.26 107.96 486.99 108.00 C 481.12 114.81 476.94 123.91 478.35 133.05 C 480.53 141.90 489.85 146.63 498.30 147.55 C 521.69 149.50 545.92 144.89 568.65 152.52 C 611.46 150.29 639.86 199.81 630.19 238.53 C 641.51 238.45 652.84 238.51 664.17 238.50 C 663.14 257.82 654.96 276.46 642.34 291.02 C 628.92 290.99 615.49 290.98 602.07 291.02 C 583.34 310.15 556.99 322.37 530.00 321.99 C 487.72 321.95 445.44 322.10 403.16 321.94 C 404.33 311.63 405.55 301.32 406.75 291.01 C 399.78 291.00 392.80 290.97 385.83 291.03 C 384.86 301.36 383.44 311.64 382.35 321.96 C 361.04 322.01 339.74 322.04 318.44 321.97 C 319.49 312.20 320.75 302.46 321.79 292.70 C 322.45 292.17 322.92 291.50 323.20 290.72 C 336.18 291.35 349.22 290.87 362.23 290.97 C 362.23 273.48 362.23 255.99 362.23 238.50 C 356.08 238.51 349.94 238.49 343.80 238.51 C 342.49 257.67 334.79 276.61 321.76 290.78 C 308.50 291.31 295.06 290.84 281.73 291.00 C 262.98 309.94 236.90 322.30 210.00 321.98 C 140.25 321.98 70.50 322.08 0.75 321.94 C 1.97 311.65 3.18 301.36 4.34 291.07 C 17.77 290.81 31.19 291.17 44.61 290.93 C 44.54 273.44 44.62 255.96 44.57 238.47 C 33.21 238.53 21.85 238.50 10.49 238.49 C 13.84 209.99 17.13 181.49 20.49 153.00 C 16.01 153.00 11.52 153.00 7.03 152.98 C 7.05 139.24 7.06 125.51 7.03 111.77 C 8.01 110.51 9.00 109.25 9.99 108.00 C 16.26 107.98 22.54 108.04 28.81 107.96 C 53.14 81.03 77.95 54.53 102.27 27.59 M 91.57 91.51 C 90.93 96.98 90.29 102.46 89.70 107.94 C 83.47 108.07 77.25 107.99 71.03 107.97 C 70.98 122.97 71.01 137.97 71.01 152.97 C 75.47 153.00 79.92 153.00 84.37 153.02 C 81.13 181.53 77.72 210.01 74.44 238.51 C 85.79 238.48 97.15 238.51 108.51 238.50 C 108.51 245.00 108.51 251.50 108.51 258.00 C 158.70 257.87 208.91 258.27 259.09 257.80 C 269.95 258.03 279.11 249.37 279.39 238.50 C 268.02 238.51 256.66 238.49 245.29 238.51 C 249.32 210.10 251.98 181.50 255.61 153.04 C 251.13 152.97 246.65 153.02 242.16 152.99 C 241.79 138.02 243.02 122.95 241.41 108.05 C 247.67 107.92 253.94 108.07 260.20 107.95 C 260.35 97.60 250.55 91.16 240.96 91.62 C 191.17 91.35 141.37 91.57 91.57 91.51 Z" />
<path fill="#000000" opacity="1.00" d=" M 734.82 27.49 C 802.44 27.52 870.06 27.48 937.67 27.51 C 918.26 48.91 898.68 70.16 879.22 91.52 C 854.17 91.49 829.13 91.49 804.08 91.52 C 803.57 97.02 802.77 102.48 802.26 107.98 C 796.03 108.05 789.81 107.95 783.58 108.03 C 783.57 123.01 783.58 137.99 783.58 152.97 C 788.02 153.08 792.46 152.92 796.91 153.05 C 793.75 181.55 790.19 210.01 787.06 238.51 C 798.38 238.48 809.71 238.50 821.04 238.50 C 821.05 256.00 821.06 273.50 821.03 291.01 C 807.62 291.00 794.20 290.99 780.79 291.01 C 779.79 301.35 778.35 311.65 777.29 321.98 C 755.88 321.97 734.46 322.10 713.04 321.95 C 713.92 311.64 715.46 301.41 716.46 291.11 C 729.88 290.76 743.31 291.18 756.74 290.96 C 756.69 273.46 756.77 255.97 756.69 238.47 C 745.34 238.55 733.98 238.47 722.62 238.51 C 726.02 210.02 729.25 181.51 732.65 153.02 C 728.17 152.98 723.69 153.01 719.22 152.99 C 719.23 138.00 719.23 123.00 719.22 108.01 C 725.50 107.94 731.78 108.12 738.07 107.89 C 738.31 102.39 739.31 96.96 739.73 91.48 C 718.61 91.52 697.49 91.52 676.37 91.48 C 695.80 70.10 715.37 48.85 734.82 27.49 Z" />
<path fill="#000000" opacity="1.00" d=" M 1278.14 27.50 C 1320.40 27.74 1362.69 27.01 1404.93 27.87 C 1445.23 30.20 1478.56 67.73 1476.73 107.95 C 1470.50 108.14 1464.26 107.89 1458.04 108.05 C 1458.76 122.99 1458.84 138.02 1457.95 152.96 C 1462.40 152.98 1466.86 152.95 1471.32 153.08 C 1462.31 191.08 1430.30 222.22 1392.11 230.37 C 1393.86 232.99 1395.66 235.60 1397.21 238.37 C 1408.62 238.65 1420.05 238.44 1431.47 238.48 C 1444.96 255.95 1458.34 273.50 1471.79 291.00 C 1458.36 291.00 1444.93 290.99 1431.51 291.01 C 1438.37 301.24 1444.96 311.66 1451.72 321.96 C 1424.82 322.03 1397.92 322.03 1371.03 321.96 C 1364.38 311.64 1357.68 301.36 1350.93 291.11 C 1364.30 290.83 1377.69 291.14 1391.07 290.93 C 1377.63 273.48 1364.16 256.06 1350.82 238.53 C 1339.45 238.48 1328.08 238.49 1316.71 238.52 C 1301.41 215.24 1286.31 191.82 1271.00 168.55 C 1307.78 168.48 1344.56 168.57 1381.34 168.51 C 1392.00 169.05 1403.65 163.92 1406.97 153.06 C 1402.49 152.95 1398.01 153.01 1393.54 153.01 C 1395.36 138.14 1394.82 122.94 1393.91 108.01 C 1400.11 107.99 1406.31 108.01 1412.51 107.99 C 1412.69 97.52 1402.53 91.25 1392.97 91.62 C 1351.01 91.36 1309.04 91.55 1267.07 91.52 C 1266.56 97.02 1265.76 102.49 1265.25 107.99 C 1259.03 108.00 1252.80 108.04 1246.58 107.96 C 1246.56 122.99 1246.56 138.01 1246.58 153.03 C 1251.02 153.03 1255.46 152.91 1259.91 153.05 C 1256.68 181.54 1253.29 210.00 1249.97 238.48 C 1261.32 238.52 1272.68 238.49 1284.03 238.50 C 1284.04 256.00 1284.05 273.50 1284.03 291.00 C 1270.61 291.00 1257.20 290.99 1243.79 291.01 C 1242.75 301.35 1241.36 311.65 1240.28 321.99 C 1218.96 321.93 1197.64 322.14 1176.33 321.92 C 1177.48 311.63 1178.82 301.36 1179.87 291.06 C 1193.28 290.99 1206.69 290.97 1220.10 291.04 C 1220.19 273.53 1220.16 256.02 1220.12 238.50 C 1213.54 238.49 1206.96 238.52 1200.39 238.48 C 1199.30 257.76 1191.36 276.41 1178.78 291.00 C 1165.29 291.21 1151.69 290.59 1138.27 291.30 C 1119.47 309.86 1093.70 322.18 1067.00 321.99 C 1027.33 321.98 987.66 322.08 947.99 321.95 C 924.01 321.82 900.43 310.17 885.86 291.12 C 899.23 290.87 912.61 291.07 925.98 290.94 C 913.34 276.45 905.43 257.76 904.39 238.51 C 893.03 238.50 881.66 238.50 870.31 238.51 C 873.03 209.96 876.95 181.53 879.97 153.01 C 875.53 153.00 871.09 153.00 866.65 153.00 C 866.44 137.90 866.19 122.49 871.16 108.00 C 877.43 107.99 883.69 108.03 889.97 107.97 C 908.54 68.68 945.12 35.20 989.00 28.43 C 1021.96 27.20 1055.00 27.90 1087.99 27.52 C 1132.33 28.14 1171.82 64.63 1178.88 107.89 C 1172.66 108.22 1166.44 107.84 1160.23 108.05 C 1164.34 122.67 1162.74 137.97 1163.05 152.95 C 1167.51 153.00 1171.99 153.04 1176.46 153.03 C 1173.06 181.52 1170.03 210.06 1166.34 238.51 C 1172.92 238.47 1179.51 238.52 1186.10 238.49 C 1189.30 209.98 1192.81 181.52 1195.97 153.01 C 1191.53 153.00 1187.08 153.00 1182.65 153.00 C 1184.48 138.27 1178.81 121.05 1185.79 108.00 C 1192.06 107.77 1198.49 108.46 1204.67 107.67 C 1229.26 81.04 1253.53 54.11 1278.14 27.50 M 961.74 107.92 C 955.46 108.04 949.18 107.95 942.91 108.01 C 931.36 120.10 929.11 137.00 930.64 152.98 C 935.07 153.05 939.51 152.96 943.95 153.05 C 941.10 181.56 937.30 209.97 934.71 238.50 C 946.08 238.51 957.46 238.48 968.84 238.51 C 968.99 249.32 978.16 257.97 988.91 257.78 C 1030.95 258.19 1073.03 258.06 1115.08 257.85 C 1126.11 258.14 1136.06 249.78 1136.36 238.50 C 1125.00 238.51 1113.64 238.48 1102.28 238.52 C 1106.33 210.11 1108.98 181.50 1112.61 153.03 C 1108.12 152.97 1103.64 153.01 1099.16 152.99 C 1099.23 137.76 1100.74 121.00 1091.11 108.01 C 1097.33 107.99 1103.56 108.01 1109.79 107.99 C 1103.92 97.95 1092.64 91.44 1080.99 91.54 C 1051.66 91.57 1022.33 91.77 993.01 91.90 C 980.62 91.45 970.00 99.52 961.74 107.92 Z" />
<path fill="#000000" opacity="1.00" d=" M 1569.82 27.50 C 1633.21 27.50 1696.60 27.51 1760.00 27.49 L 1760.00 41.38 C 1744.81 58.15 1729.46 74.77 1714.23 91.51 C 1689.18 91.51 1664.13 91.48 1639.09 91.52 C 1638.54 97.02 1637.80 102.49 1637.25 107.99 C 1631.02 108.02 1624.80 108.02 1618.59 107.97 C 1618.56 122.99 1618.56 138.01 1618.59 153.03 C 1623.02 153.02 1627.46 152.95 1631.91 153.04 C 1628.74 181.54 1625.20 210.00 1622.05 238.50 C 1633.38 238.51 1644.70 238.47 1656.04 238.52 C 1656.04 256.01 1656.06 273.50 1656.03 291.00 C 1642.62 291.01 1629.21 290.98 1615.81 291.01 C 1614.75 301.36 1613.38 311.66 1612.28 322.00 C 1590.86 321.98 1569.44 322.06 1548.03 321.95 C 1549.01 311.59 1550.33 301.27 1551.58 290.95 C 1564.96 291.04 1578.35 291.03 1591.73 290.96 C 1591.66 273.46 1591.84 255.95 1591.64 238.44 C 1580.30 238.57 1568.97 238.48 1557.63 238.50 C 1561.02 210.02 1564.23 181.53 1567.66 153.06 C 1563.17 152.97 1558.69 153.01 1554.22 152.99 C 1554.23 138.00 1554.23 123.01 1554.22 108.01 C 1560.49 107.95 1566.77 108.10 1573.04 107.90 C 1573.36 102.41 1574.27 96.97 1574.74 91.49 C 1553.65 91.46 1532.56 91.61 1511.47 91.42 C 1530.82 70.02 1550.41 48.84 1569.82 27.50 Z" />
</g>
</svg>
