<?xml version="1.0" encoding="UTF-8" ?>
<!DOCTYPE svg PUBLIC "-//W3C//DTD SVG 1.1//EN" "http://www.w3.org/Graphics/SVG/1.1/DTD/svg11.dtd">
<svg width="1380pt" height="480pt" viewBox="0 0 1380 480" version="1.1" xmlns="http://www.w3.org/2000/svg">
<g id="#000000ff">
<path fill="#000000" opacity="1.00" d=" M 51.00 133.02 C 457.76 92.01 864.50 50.68 1271.27 9.89 C 1299.83 18.76 1328.18 28.40 1356.71 37.42 C 1363.19 77.31 1369.81 117.19 1376.09 157.11 C 1370.05 206.82 1363.36 256.50 1355.96 306.04 C 1340.93 313.92 1326.27 322.64 1311.04 330.03 C 1184.04 343.08 1057.04 356.39 930.00 369.03 C 900.57 365.88 871.40 360.00 842.04 356.11 C 807.35 365.79 772.82 376.17 738.13 385.88 C 693.80 392.02 649.39 397.63 605.04 403.63 C 575.95 405.27 546.74 404.73 517.66 406.50 C 408.63 418.56 300.22 433.94 191.10 445.81 C 158.19 453.31 123.15 451.53 89.51 452.35 C 66.67 438.27 46.02 420.51 24.02 405.01 C 19.66 362.99 15.49 320.83 11.20 278.90 C 13.98 252.68 16.51 226.42 19.38 200.21 C 25.42 186.86 32.05 173.75 38.25 160.46 C 38.73 160.48 39.69 160.53 40.17 160.55 C 43.80 151.38 47.38 142.19 51.00 133.02 M 1309.31 41.44 C 1257.98 48.11 1206.61 54.49 1154.95 58.11 C 1150.32 59.48 1142.51 56.95 1140.42 62.30 C 1145.99 98.44 1151.42 134.64 1155.98 170.94 C 1161.30 213.77 1161.18 257.05 1165.74 299.94 C 1165.86 304.25 1170.81 304.72 1174.06 303.92 C 1229.53 297.25 1284.99 287.79 1341.06 288.92 C 1343.96 288.94 1347.86 287.60 1347.90 284.13 C 1349.69 263.77 1349.85 243.31 1352.20 223.00 C 1352.26 218.20 1353.91 208.02 1345.95 210.00 C 1317.62 215.28 1288.90 220.60 1259.96 219.03 C 1250.63 218.94 1251.30 204.01 1260.03 202.97 C 1282.29 198.31 1305.37 198.75 1328.04 198.80 C 1330.35 198.54 1332.43 196.45 1331.71 194.00 C 1330.25 175.36 1330.30 156.65 1331.37 138.00 C 1331.04 134.08 1332.68 126.64 1327.03 126.20 C 1303.38 131.03 1279.25 136.19 1255.02 135.09 C 1247.09 135.91 1238.97 124.58 1248.68 120.68 C 1275.86 112.26 1304.97 116.80 1332.93 113.76 C 1336.29 113.21 1335.42 109.13 1334.94 106.76 C 1331.20 87.78 1327.61 68.75 1322.98 49.97 C 1321.90 43.70 1315.34 40.03 1309.31 41.44 M 1098.29 61.45 C 1078.81 65.91 1058.99 68.32 1039.02 68.74 C 1033.86 69.44 1026.48 67.87 1024.19 74.04 C 1012.37 101.17 998.43 127.53 989.84 155.95 C 988.37 159.79 987.31 164.13 984.03 166.90 C 961.82 138.22 943.12 106.69 919.05 79.45 C 894.43 83.78 869.88 88.57 844.99 91.35 C 841.81 91.65 836.31 92.59 837.32 97.01 C 841.74 136.92 848.99 176.45 853.49 216.35 C 857.61 255.04 858.34 294.01 862.50 332.70 C 863.68 339.23 871.66 336.04 876.10 335.82 C 898.44 331.78 921.00 329.39 943.69 328.53 C 947.74 327.80 954.57 329.36 955.73 323.97 C 954.58 297.44 946.61 271.27 946.48 244.75 C 967.45 269.16 977.18 301.45 997.51 326.49 C 998.61 327.90 1001.14 329.79 1002.23 327.23 C 1016.77 297.81 1020.44 263.83 1036.12 235.03 C 1041.37 261.02 1039.47 288.19 1043.76 314.38 C 1046.21 319.51 1052.72 316.51 1057.04 316.33 C 1079.49 312.33 1102.14 309.88 1124.93 309.10 C 1129.17 308.53 1137.53 309.53 1136.92 302.98 C 1132.38 260.47 1123.44 218.53 1119.76 175.91 C 1116.32 138.54 1114.95 100.99 1111.07 63.66 C 1109.96 57.59 1102.31 61.30 1098.29 61.45 M 695.33 100.49 C 641.86 99.65 591.99 136.13 573.90 185.94 C 561.87 218.63 564.12 256.07 578.47 287.65 C 591.49 315.59 615.30 337.89 643.02 350.97 C 676.21 366.33 715.79 365.37 749.25 351.31 C 779.94 338.04 804.15 311.77 817.25 281.25 C 831.42 247.03 829.24 206.90 813.53 173.59 C 792.02 129.82 744.63 98.77 695.33 100.49 M 449.02 134.02 C 445.44 135.06 438.82 132.98 437.95 138.03 C 439.38 170.42 451.98 201.92 451.04 234.41 C 421.49 204.71 394.38 172.72 366.69 141.31 C 362.66 135.84 355.68 139.68 350.36 140.48 C 330.22 146.35 309.76 151.26 288.99 154.33 C 286.79 154.68 284.11 156.31 284.77 158.91 C 289.66 203.75 298.57 248.09 302.31 293.06 C 305.13 326.01 306.11 359.11 309.67 392.00 C 310.28 397.92 317.37 396.04 321.35 395.52 C 342.77 391.94 364.28 388.85 386.04 388.41 C 390.66 387.71 399.15 389.41 399.53 382.66 C 397.08 353.66 390.83 325.03 388.60 296.02 C 389.40 291.28 393.98 295.40 395.89 297.13 C 422.47 321.91 445.96 349.74 470.80 376.20 C 474.90 381.00 481.43 377.84 486.65 377.50 C 504.57 373.94 522.74 372.39 540.98 371.84 C 545.39 371.53 554.03 371.91 552.32 365.08 C 543.96 289.86 536.59 214.55 532.17 138.98 C 530.93 134.57 533.44 124.41 526.10 125.65 C 500.47 129.08 474.86 132.74 449.02 134.02 M 45.21 215.20 C 20.74 248.44 15.86 293.47 28.61 332.26 C 47.89 391.24 113.85 430.91 175.02 417.96 C 194.12 414.30 211.76 405.48 228.08 395.17 C 245.68 393.64 263.35 397.94 280.96 395.86 C 283.81 395.58 286.22 393.04 285.57 390.09 C 283.15 369.25 277.74 348.90 275.09 328.09 C 272.46 307.82 274.20 287.25 271.71 266.98 C 270.67 263.04 265.95 264.31 262.97 264.58 C 235.13 268.52 207.23 273.78 178.98 272.79 C 176.22 272.61 171.59 273.07 172.53 277.00 C 174.16 293.73 179.08 309.90 182.37 326.34 C 157.29 343.31 119.97 325.85 116.61 295.96 C 112.53 273.68 130.07 249.74 153.09 248.74 C 167.74 246.62 181.03 253.56 193.96 259.23 C 201.62 263.18 207.93 255.65 212.41 250.44 C 223.49 236.64 234.58 222.60 242.88 206.91 C 245.83 202.51 243.48 197.29 240.09 193.94 C 221.60 173.41 193.59 164.94 167.05 161.15 C 120.50 154.91 71.59 176.15 45.21 215.20 Z" />
<path fill="#000000" opacity="1.00" d=" M 690.35 190.49 C 713.32 186.22 736.00 206.09 736.62 229.04 C 738.63 249.50 722.59 270.13 701.92 272.17 C 685.02 274.94 667.80 264.77 660.31 249.74 C 647.83 226.36 663.39 193.33 690.35 190.49 Z" />
</g>
</svg>
